<svg xmlns="http://www.w3.org/2000/svg" width="126.812" height="43.281"><path d="M29.799 13.091a10.735 10.735 0 0 1-1.732 4.671c-.058.081-5.668 8.165-5.668 13.216l-.193 1.494a1.858 1.858 0 0 1-1.884 1.5H9.548a1.86 1.86 0 0 1-1.883-1.5l-.19-1.495c0-5.052-5.611-13.135-5.622-13.216A10.275 10.275 0 0 1 .075 13.09l-.064-1.1a10.872 10.872 0 0 1 4.37-8.48A16.84 16.84 0 0 1 14.938-.006a18.381 18.381 0 0 1 4.213.484 16.062 16.062 0 0 1 6.343 3.031 10.876 10.876 0 0 1 4.369 8.48zM8.153 35.698a1.259 1.259 0 0 1 1.38-1.08h10.808a1.114 1.114 0 1 1 0 2.163 1.114 1.114 0 1 1 0 2.163 1.114 1.114 0 1 1 0 2.165H9.533a1.114 1.114 0 1 1 0-2.165 1.114 1.114 0 1 1 0-2.163 1.26 1.26 0 0 1-1.38-1.083zm6.785 7.593a5.868 5.868 0 0 1-4.328-1.763h8.654a5.864 5.864 0 0 1-4.326 1.763z" opacity=".6" fill-rule="evenodd" fill="#fff"/><g fill-rule="evenodd"><path d="M44.892 43.237a3.876 3.876 0 0 0 4.114-3.961 5.94 5.94 0 0 0-2.447-4.718l-1.3-1.145a3.248 3.248 0 0 1-1.514-2.582 1.1 1.1 0 0 1 .932-1.223c.893 0 .99.893 1.029 2.291l2.99-.369c-.058-1.845-.544-4.466-3.9-4.466-2.718 0-4.407 1.456-4.407 4.116a5.063 5.063 0 0 0 2.116 4.1l1.359 1.184a3.758 3.758 0 0 1 1.729 2.99.937.937 0 0 1-.874 1.146c-.874 0-1.34-.757-1.379-2.8l-2.97.447c.114 3.495 1.551 4.99 4.522 4.99zm10.309 0c3.553 0 4.757-1.942 4.757-5.184v-5.847c0-3.243-1.2-5.145-4.757-5.145-3.534 0-4.718 1.9-4.718 5.145v5.844c0 3.245 1.184 5.187 4.723 5.187zm0-2.466c-1.087 0-1.165-.951-1.165-1.844v-7.573c0-.932.136-1.845 1.165-1.845 1.087 0 1.2.913 1.2 1.845v7.572c.005.893-.113 1.845-1.195 1.845zm6.873 2.233h7.087v-2.35h-3.612V27.276h-3.475v15.73zm12.832.233c3.611 0 4.66-1.806 4.66-5.107V27.276H76.11v11.378c0 .99-.1 2.078-1.2 2.078s-1.223-1.087-1.223-2.078V27.276H70.25V38.13c-.002 3.301 1.027 5.107 4.656 5.107zm8.29-.233h3.5V29.859h2.349v-2.583h-8.213v2.582h2.369v13.148zm7.242 0h3.475V27.276h-3.475v15.73zm10.329.233c3.553 0 4.757-1.942 4.757-5.184v-5.847c0-3.243-1.2-5.145-4.757-5.145-3.534 0-4.718 1.9-4.718 5.145v5.844c.002 3.245 1.186 5.187 4.72 5.187zm0-2.466c-1.087 0-1.165-.951-1.165-1.844v-7.573c0-.932.136-1.845 1.165-1.845 1.087 0 1.2.913 1.2 1.845v7.572c.006.893-.111 1.845-1.198 1.845zm6.873 2.233h2.971v-8.155l3.225 8.157h2.349v-15.73h-2.874v7.572l-3.223-7.572h-2.446v15.73zm15.066.233a3.877 3.877 0 0 0 4.117-3.961 5.94 5.94 0 0 0-2.447-4.718l-1.3-1.145a3.248 3.248 0 0 1-1.514-2.582 1.1 1.1 0 0 1 .932-1.223c.893 0 .99.893 1.029 2.291l2.99-.369c-.058-1.845-.544-4.466-3.9-4.466-2.718 0-4.407 1.456-4.407 4.116a5.061 5.061 0 0 0 2.116 4.1l1.359 1.184a3.757 3.757 0 0 1 1.725 2.986.937.937 0 0 1-.873 1.146c-.874 0-1.34-.757-1.379-2.8l-2.971.447c.123 3.499 1.555 4.994 4.523 4.994z" fill="#597ac6"/><path d="M44.112 17.63c3.514 0 4.524-2 4.524-4.679v-1.359h-3.4v1.65c0 .951-.039 1.922-1.126 1.922-1.029 0-1.2-.854-1.2-1.922v-7.4c0-.951.1-1.942 1.2-1.942s1.126.971 1.126 1.883v1.573h3.4V6c0-2.679-1.049-4.543-4.524-4.543-3.592 0-4.719 2-4.719 5.262v5.67c0 3.183 1.127 5.241 4.719 5.241zm8.367-.233h3.476v-7.048h.99l1.728 7.048h3.592l-2.159-7.611c1.553-.738 1.922-2.019 1.922-3.961 0-3.3-2.058-4.155-5.223-4.155h-4.33v15.727zm3.476-9.048V4h1.126c1.32 0 1.728.8 1.728 2.136 0 1.4-.427 2.214-1.883 2.214h-.971zm10.115 9.048h7.106v-2.349h-3.63v-4.7h2.737V7.942h-2.737v-3.9h3.592V1.67H66.07v15.727zm9.863 0h3.281l.544-3.32h2.31l.525 3.32h3.2L82.862 1.67h-3.956zm4.136-5.4l.834-6.135.835 6.135h-1.669zm9.843 5.4h3.494V4.253h2.349V1.67h-8.213v2.582h2.369v13.145zm9.183 0h3.476V1.67h-3.476v15.727zm9.864 0h3.669l2.878-15.727h-3.15l-1.572 10.679-1.69-10.679h-2.97zm10.056 0h7.107v-2.349h-3.631v-4.7h2.738V7.942h-2.738v-3.9h3.592V1.67h-7.068v15.727z" fill="#fff"/></g></svg>