<svg id="logo" xmlns="http://www.w3.org/2000/svg" width="126.812" height="43.281" viewBox="0 0 126.812 43.281">
  <defs>
    <style>
      .cls-1, .cls-3 {
        fill: #fff;
      }

      .cls-1, .cls-2, .cls-3 {
        fill-rule: evenodd;
      }

      .cls-1 {
        opacity: 0.6;
      }

      .cls-2 {
        fill: #597ac6;
      }
    </style>
  </defs>
  <path id="Light" class="cls-1" d="M276.393,34.185a10.735,10.735,0,0,1-1.732,4.671c-0.058.081-5.668,8.165-5.668,13.216L268.8,53.566a1.858,1.858,0,0,1-1.884,1.5H256.142a1.86,1.86,0,0,1-1.883-1.5l-0.19-1.495c0-5.052-5.611-13.135-5.622-13.216a10.275,10.275,0,0,1-1.778-4.671l-0.064-1.1a10.872,10.872,0,0,1,4.37-8.48,16.84,16.84,0,0,1,10.557-3.516,18.381,18.381,0,0,1,4.213.484,16.062,16.062,0,0,1,6.343,3.031,10.876,10.876,0,0,1,4.369,8.48ZM254.747,56.792a1.259,1.259,0,0,1,1.38-1.08h10.808a1.114,1.114,0,1,1,0,2.163,1.114,1.114,0,1,1,0,2.163,1.114,1.114,0,1,1,0,2.165H256.127a1.114,1.114,0,1,1,0-2.165,1.114,1.114,0,1,1,0-2.163A1.26,1.26,0,0,1,254.747,56.792Zm6.785,7.593a5.868,5.868,0,0,1-4.328-1.763h8.654A5.864,5.864,0,0,1,261.532,64.385Z" transform="translate(-246.594 -21.094)"/>
  <g id="text">
    <path id="SOLUTIONS" class="cls-2" d="M291.486,64.331A3.876,3.876,0,0,0,295.6,60.37a5.94,5.94,0,0,0-2.447-4.718l-1.3-1.145a3.248,3.248,0,0,1-1.514-2.582,1.1,1.1,0,0,1,.932-1.223c0.893,0,.99.893,1.029,2.291l2.99-.369c-0.058-1.845-.544-4.466-3.9-4.466-2.718,0-4.407,1.456-4.407,4.116a5.063,5.063,0,0,0,2.116,4.1l1.359,1.184a3.758,3.758,0,0,1,1.729,2.99,0.937,0.937,0,0,1-.874,1.146c-0.874,0-1.34-.757-1.379-2.8l-2.97.447C287.078,62.836,288.515,64.331,291.486,64.331Zm10.309,0c3.553,0,4.757-1.942,4.757-5.184V53.3c0-3.243-1.2-5.145-4.757-5.145-3.534,0-4.718,1.9-4.718,5.145v5.844C297.077,62.389,298.261,64.331,301.8,64.331Zm0-2.466c-1.087,0-1.165-.951-1.165-1.844V52.448c0-.932.136-1.845,1.165-1.845,1.087,0,1.2.913,1.2,1.845V60.02C303,60.913,302.882,61.865,301.8,61.865Zm6.873,2.233h7.087V61.748h-3.612V48.37h-3.475V64.1ZM321.5,64.331c3.611,0,4.66-1.806,4.66-5.107V48.37h-3.456V59.748c0,0.99-.1,2.078-1.2,2.078s-1.223-1.087-1.223-2.078V48.37h-3.437V59.224C316.842,62.525,317.871,64.331,321.5,64.331Zm8.29-.233h3.5V50.953h2.349V48.37h-8.213v2.582h2.369V64.1Zm7.242,0h3.475V48.37h-3.475V64.1Zm10.329,0.233c3.553,0,4.757-1.942,4.757-5.184V53.3c0-3.243-1.2-5.145-4.757-5.145-3.534,0-4.718,1.9-4.718,5.145v5.844C342.645,62.389,343.829,64.331,347.363,64.331Zm0-2.466c-1.087,0-1.165-.951-1.165-1.844V52.448c0-.932.136-1.845,1.165-1.845,1.087,0,1.2.913,1.2,1.845V60.02C348.567,60.913,348.45,61.865,347.363,61.865Zm6.873,2.233h2.971V55.943L360.43,64.1h2.349V48.37h-2.874v7.572l-3.223-7.572h-2.446V64.1ZM369.3,64.331a3.877,3.877,0,0,0,4.117-3.961,5.94,5.94,0,0,0-2.447-4.718l-1.3-1.145a3.248,3.248,0,0,1-1.514-2.582,1.1,1.1,0,0,1,.932-1.223c0.893,0,.99.893,1.029,2.291l2.99-.369c-0.058-1.845-.544-4.466-3.9-4.466-2.718,0-4.407,1.456-4.407,4.116a5.061,5.061,0,0,0,2.116,4.1l1.359,1.184A3.757,3.757,0,0,1,370,60.544a0.937,0.937,0,0,1-.873,1.146c-0.874,0-1.34-.757-1.379-2.8l-2.971.447C364.9,62.836,366.332,64.331,369.3,64.331Z" transform="translate(-246.594 -21.094)"/>
    <path id="CREATIVE" class="cls-3" d="M290.706,38.724c3.514,0,4.524-2,4.524-4.679V32.686h-3.4v1.65c0,0.951-.039,1.922-1.126,1.922-1.029,0-1.2-.854-1.2-1.922v-7.4c0-.951.1-1.942,1.2-1.942s1.126,0.971,1.126,1.883v1.573h3.4V27.094c0-2.679-1.049-4.543-4.524-4.543-3.592,0-4.719,2-4.719,5.262v5.67C285.987,36.666,287.114,38.724,290.706,38.724Zm8.367-.233h3.476V31.443h0.99l1.728,7.048h3.592L306.7,30.88c1.553-.738,1.922-2.019,1.922-3.961,0-3.3-2.058-4.155-5.223-4.155h-4.33V38.491Zm3.476-9.048V25.094h1.126c1.32,0,1.728.8,1.728,2.136,0,1.4-.427,2.214-1.883,2.214h-0.971Zm10.115,9.048h7.106V36.142h-3.63v-4.7h2.737V29.036H316.14v-3.9h3.592V22.764h-7.068V38.491Zm9.863,0h3.281l0.544-3.32h2.31l0.525,3.32h3.2l-2.931-15.727H325.5Zm4.136-5.4,0.834-6.135,0.835,6.135h-1.669Zm9.843,5.4H340V25.347h2.349V22.764h-8.213v2.582h2.369V38.491Zm9.183,0h3.476V22.764h-3.476V38.491Zm9.864,0h3.669L362.1,22.764H358.95l-1.572,10.679-1.69-10.679h-2.97Zm10.056,0h7.107V36.142h-3.631v-4.7h2.738V29.036h-2.738v-3.9h3.592V22.764h-7.068V38.491Z" transform="translate(-246.594 -21.094)"/>
  </g>
</svg>
